HIERARCHY
ROOT PELVIS
{
    OFFSET 0 0 0
    CHANNELS 6 Xposition Yposition Zposition Xrotation Yrotation Zrotation
    JOINT SPINE_NAVAL
    {
        OFFSET -2.0534851999999972 15.5394837 -4.181665000000021
        CHANNELS 3 Xrotation Yrotation Zrotation
        JOINT SPINE_CHEST
        {
            OFFSET -0.1256637000000012 12.880011000000001 -1.5139648999999735
            CHANNELS 3 Xrotation Yrotation Zrotation
            JOINT NECK
            {
                OFFSET 0.6955734000000007 19.713171299999992 -0.8032470999999987
                CHANNELS 3 Xrotation Yrotation Zrotation
            }
            JOINT CLAVICLE_LEFT
            {
                OFFSET 2.8376296999999995 16.523620599999997 -0.8934326000000056
                CHANNELS 3 Xrotation Yrotation Zrotation
                JOINT SHOULDER_LEFT
                {
                    OFFSET 10.252911399999999 -3.060675100000003 -7.381201199999987
                    CHANNELS 3 Xrotation Yrotation Zrotation
                    JOINT ELBOW_LEFT
                    {
                        OFFSET 3.705188000000004 -24.848709099999997 -0.4947998000000098
                        CHANNELS 3 Xrotation Yrotation Zrotation
                        JOINT WRIST_LEFT
                        {
                            OFFSET -1.6777131000000054 -20.755538899999998 -3.3462890000000245
                            CHANNELS 3 Xrotation Yrotation Zrotation
                            JOINT HAND_LEFT
                            {
                                OFFSET 2.300473100000005 -8.163669200000001 2.175024400000029
                                CHANNELS 3 Xrotation Yrotation Zrotation
                                JOINT HANDTIP_LEFT
                                {
                                    OFFSET -0.051223800000002484 -7.1441635 6.745263599999999
                                    CHANNELS 3 Xrotation Yrotation Zrotation
                                }
                            }
                        }
                    }
                }
            }
            JOINT CLAVICLE_RIGHT
            {
                OFFSET -1.0794707999999986 16.622052000000004 1.603588899999977
                CHANNELS 3 Xrotation Yrotation Zrotation
                JOINT SHOULDER_RIGHT
                {
                    OFFSET -10.558650200000002 -3.7694825000000036 4.160668900000019
                    CHANNELS 3 Xrotation Yrotation Zrotation
                    JOINT ELBOW_RIGHT
                    {
                        OFFSET -3.171775099999999 -24.1309143 7.949121100000002
                        CHANNELS 3 Xrotation Yrotation Zrotation
                        JOINT WRIST_RIGHT
                        {
                            OFFSET -3.3093597000000003 -20.921231799999997 -2.7364501999999904
                            CHANNELS 3 Xrotation Yrotation Zrotation
                            JOINT HAND_RIGHT
                            {
                                OFFSET -0.3383876999999991 -8.972045099999999 2.876147499999979
                                CHANNELS 3 Xrotation Yrotation Zrotation
                            }
                        }
                    }
                }
            }
        }
    }
}
MOTION
Frames: 9
Frame Time: 0.01
0 0 0 -19.815641205117288 3.858142241474348 14.318192352863155 -5.688111211581029 -0.11108904473508577 2.841493021334876 -7.348085923761572 -1.9836525488101853 0.594453731470848 0 0 0 -2.9120355142081253 5.58795423521638 -9.133591046214775 7.366726757726788 5.517194119254744 4.995850240549914 12.861152491026415 -1.1418184278864645 -11.447075332018052 17.323530894489735 -11.103684786225836 -36.96313583850232 65.58111137881987 -44.62783912687458 -3.695537021369194 0 0 0 -0.7032534946207818 -2.407197503961714 -2.772365732759771 15.85658598909169 2.273643592625415 1.0017941805343695 13.60122227721064 1.8346408452595577 -1.9094372454157407 40.07508496241271 8.551399283145573 -11.085232400555542 0 0 0 
0 0 0 -19.493809258261166 3.715258954494689 14.006986741903951 -5.739444568985558 -0.08788815946926072 2.8694979551977973 -7.2050802834889485 -1.925473413510372 0.5335044732347457 0 0 0 -2.585432985057514 5.959909390274333 -8.588781175459255 7.473568561382298 5.083146520296138 4.310582942082056 12.233775822531834 -1.1297013815545622 -11.076197544342552 15.439096951461073 -11.575352657134921 -35.624347065079284 65.91964298640207 -43.278092501594784 -3.1739327728030515 0 0 0 -0.7509534917448059 -2.4673087064099 -2.8970721052042405 16.31581022806605 2.16408453117147 1.0374707945244779 12.357561309389611 1.6091430257388903 -1.3301614219722713 39.67191279756411 8.441087223865587 -10.85482719955521 0 0 0 
0 0 0 -19.17305859270114 3.574989930234042 13.696957349864187 -5.790362999064262 -0.06462197974612857 2.8973749256783794 -7.062327357298133 -1.8683119795712622 0.4741752992738259 0 0 0 -2.2546127577781596 6.322923294032809 -8.04908873981103 7.569763970270953 4.670704713848654 3.623524517605016 11.62429260326499 -1.1136882790362934 -10.691340444303941 13.551978756286411 -12.004382585569903 -34.27186031850037 66.26450253001988 -41.902028953797455 -2.7445322768329246 0 0 0 -0.7978424491023707 -2.52808278900069 -3.022105693866203 16.77142102099793 2.0493318249531653 1.074394772736327 11.117533240939096 1.3984380918022032 -0.7564855040787968 39.277542513454506 8.327224815296727 -10.614313092686084 0 0 0 
0 0 0 -18.853437880855196 3.4373239030731875 13.388148386019393 -5.840852573401633 -0.04129994781371117 2.9251135468149303 -6.919892430524288 -1.8121785888799673 0.41645984602018704 0 0 0 -1.9198896500588833 6.677094001535841 -7.514623732712526 7.655237161134864 4.279806943678255 2.935751469429387 11.033073609619796 -1.0940137702861328 -10.293732740227409 11.666554256902192 -12.390439397355854 -32.9100556548318 66.61008040128331 -40.50836185603618 -2.40519750084506 0 0 0 -0.8439415596629658 -2.589474709724885 -3.1474479527742076 17.223008990544255 1.929509818152464 1.1125305916794608 9.881910862086196 1.2021337477511163 -0.18886718242127504 38.892232916198644 8.210284615471034 -10.36316337431417 0 0 0 
0 0 0 -18.534994483631294 3.3022482362991896 13.080602814049971 -5.890900047515625 -0.017931364852125205 2.952703832016967 -6.777838909823251 -1.7570823510171656 0.3603502647511441 0 0 0 -1.5815747297680482 7.022528721385212 -6.985490696258667 7.729919536180165 3.9103257540727974 2.248318634233203 10.460433932542207 -1.070936083814329 -9.884603168594554 9.787141815323757 -12.733637389790514 -31.54330136606056 66.95106761638117 -39.10572849184828 -2.1530358802524847 0 0 0 -0.8892704409528467 -2.6514400336190174 -3.273079589455659 17.670180749730992 1.8047480771954572 1.151842088160905 8.65144272390442 1.0198166946927183 0.3722595143014782 38.516187569407286 8.09076828876644 -10.10089632675865 0 0 0 
0 0 0 -18.323016452899758 3.2134803628771027 12.875948138776728 -5.924069305724586 -0.0023044400166372103 2.9710412558972754 -6.683218492859319 -1.7208706098721105 0.32377002890114276 0 0 0 -1.3537999073526579 7.248402134513048 -6.6351540852058655 7.7737537674003985 3.675421091609108 1.7899508605780268 10.088502171590868 -1.0537669833803502 -9.60557644300129 8.537499187139712 -12.939210887592488 -30.629951439856452 67.1737913390952 -38.16823085771092 -2.0314672448609787 0 0 0 -0.9191211748802879 -2.6931181031402476 -3.357127675676227 17.9661556748847 1.7187477429601972 1.1787308938687548 7.832965236839597 0.905641284433593 0.7431614395727596 38.2702996229679 8.009780569135 -9.919346840833045 0 0 0 
0 0 0 -17.777538656318214 3.1460232272715163 12.706808775036615 -5.775914186067467 -0.045511578041317946 2.8413214455535445 -6.646666349631386 -1.6170159404988658 0.4017133979645234 0 0 0 -1.561594645233808 7.4111302866353785 -7.028484129146761 8.322819175369473 3.811050542497183 1.996082816086356 8.922868045061175 -0.8814117276293519 -8.155697395049406 5.978145858410131 -14.117579348718223 -29.959950664167856 70.13086418827201 -37.673221194757865 -2.8247178027592996 0 0 0 -0.5060288629042038 -2.927373110434586 -2.893133619752607 17.191307140320895 1.25916315332553 0.5207896597571334 7.294022087251094 0.8282163362206653 0.8720686383249557 37.003314179019135 7.419463713379775 -9.901238250504559 0 0 0 
0 0 0 -17.231361118934668 3.079959819868198 12.536523278340724 -5.627574537729763 -0.08676154447832764 2.7105415610802983 -6.608441891715166 -1.5148452169440116 0.4830256014704855 0 0 0 -1.7796564276962579 7.573109321003972 -7.427244781757596 8.886154208522106 3.9321103162796063 2.2050196428663735 7.756552366715457 -0.7111218336850076 -6.6977774982907565 3.3857627255875355 -15.35863988834467 -29.165072591357813 72.94033681940292 -37.050650809319905 -3.533787443119049 0 0 0 -0.09606327452289344 -3.165131365242371 -2.4305116956667807 16.418376956299277 0.8089083260253612 -0.14024688234417748 6.752967996602796 0.7505288128664388 1.0233342854292091 35.72886579211695 6.835284087632231 -9.850488709772792 0 0 0 
0 0 0 -16.68459724021162 3.015319467258805 12.365137617238874 -5.479177504432203 -0.1260233751149287 2.578824003329301 -6.56857110765249 -1.4145304717187517 0.5676350462184704 0 0 0 -2.008076113759433 7.734575252297578 -7.8313582258477705 9.462914559363304 4.038085932234076 2.4163390670724296 6.590510361058942 -0.5429127951161953 -5.23250635792165 0.7728629089280113 -16.65057296990148 -28.238838247135718 75.55958409970393 -36.32597502410748 -4.126624520294557 0 0 0 0.31049009404221534 -3.4060277583013656 -1.9695152632936737 15.64775386186413 0.3682781442004334 -0.8041387789435288 6.2096155545536496 0.6729661370038501 1.1967100621800026 34.44852861484446 6.260151858323078 -9.767694411899537 0 0 0 
